<?xml version="1.0" encoding="UTF-8" standalone="no"?>
<!DOCTYPE svg PUBLIC "-//W3C//DTD SVG 20010904//EN"
              "http://www.w3.org/TR/2001/REC-SVG-20010904/DTD/svg10.dtd">

<svg xmlns="http://www.w3.org/2000/svg"
     width="27.6667in" height="18.0556in"
     viewBox="0 0 1992 1300">
  <path id="cup"
        fill="none" stroke="black" stroke-width="1"
        d="M 1469.08,736.32
           C 1469.08,736.32 1484.51,786.75 1584.78,803.37
             1684.46,812.86 1707.60,770.73 1725.40,761.83
             1740.83,749.37 1749.73,728.61 1750.32,728.61
             1750.91,728.61 1800.75,469.92 1800.75,469.92
             1800.75,469.92 1861.27,402.28 1806.09,335.82
             1738.45,269.96 1593.68,252.76 1454.25,319.80
             1361.69,369.05 1342.70,446.18 1399.66,507.89
             1415.68,563.07 1469.08,736.32 1469.08,736.32 Z" />
  <path id="keyboard"
        fill="none" stroke="black" stroke-width="1"
        d="M 78.28,1134.24
           C 78.28,1134.24 69.47,1138.54 62.16,1136.11
             59.47,1135.21 50.24,1126.76 47.67,1120.68
             44.01,1102.02 46.27,1069.98 46.27,1069.98
             46.27,1069.98 77.81,586.75 75.94,599.36
             76.61,600.04 77.11,591.19 91.13,585.11
             104.22,578.57 125.22,568.30 131.79,565.02
             146.42,557.70 1226.30,56.55 1226.30,56.55
             1226.30,56.55 1236.83,52.04 1247.80,59.35
             1258.77,66.67 1663.97,334.15 1666.58,335.27
             1672.15,338.35 1676.33,355.99 1662.92,363.31
             1649.51,370.62 78.28,1134.24 78.28,1134.24 Z" />
</svg>
